<?xml version="1.0" encoding="UTF-8" standalone="no"?>
<!DOCTYPE svg PUBLIC "-//W3C//DTD SVG 1.1//EN"
 "http://www.w3.org/Graphics/SVG/1.1/DTD/svg11.dtd">
<!-- Generated by graphviz version 2.40.1 (20161225.0304)
 -->
<!-- Title: %3 Pages: 1 -->
<svg width="3099pt" height="1124pt"
 viewBox="0.00 0.00 3099.12 1124.00" xmlns="http://www.w3.org/2000/svg" xmlns:xlink="http://www.w3.org/1999/xlink">
<g id="graph0" class="graph" transform="scale(1 1) rotate(0) translate(4 1120)">
<title>%3</title>
<polygon fill="#ffffff" stroke="transparent" points="-4,4 -4,-1120 3095.1187,-1120 3095.1187,4 -4,4"/>
<!-- [root] module.nic.azurerm_network_interface.main -->
<g id="node1" class="node">
<title>[root] module.nic.azurerm_network_interface.main</title>
<polygon fill="none" stroke="#000000" points="1426.3102,-756 1157.7494,-756 1157.7494,-720 1426.3102,-720 1426.3102,-756"/>
<text text-anchor="middle" x="1292.0298" y="-733.8" font-family="Times,serif" font-size="14.00" fill="#000000">module.nic.azurerm_network_interface.main</text>
</g>
<!-- [root] module.nic.var.ip_conf_name -->
<g id="node10" class="node">
<title>[root] module.nic.var.ip_conf_name</title>
<ellipse fill="none" stroke="#000000" cx="1051.0298" cy="-666" rx="137.6208" ry="18"/>
<text text-anchor="middle" x="1051.0298" y="-661.8" font-family="Times,serif" font-size="14.00" fill="#000000">[root] module.nic.var.ip_conf_name</text>
</g>
<!-- [root] module.nic.azurerm_network_interface.main&#45;&gt;[root] module.nic.var.ip_conf_name -->
<g id="edge3" class="edge">
<title>[root] module.nic.azurerm_network_interface.main&#45;&gt;[root] module.nic.var.ip_conf_name</title>
<path fill="none" stroke="#000000" d="M1231.5264,-719.9243C1196.4779,-709.4534 1152.3379,-696.2663 1116.4813,-685.554"/>
<polygon fill="#000000" stroke="#000000" points="1117.1854,-682.1115 1106.602,-682.6025 1115.1816,-688.8186 1117.1854,-682.1115"/>
</g>
<!-- [root] module.nic.var.location -->
<g id="node11" class="node">
<title>[root] module.nic.var.location</title>
<ellipse fill="none" stroke="#000000" cx="386.0298" cy="-594" rx="115.9209" ry="18"/>
<text text-anchor="middle" x="386.0298" y="-589.8" font-family="Times,serif" font-size="14.00" fill="#000000">[root] module.nic.var.location</text>
</g>
<!-- [root] module.nic.azurerm_network_interface.main&#45;&gt;[root] module.nic.var.location -->
<g id="edge4" class="edge">
<title>[root] module.nic.azurerm_network_interface.main&#45;&gt;[root] module.nic.var.location</title>
<path fill="none" stroke="#000000" d="M1157.6399,-720.4317C1082.8744,-710.3728 988.1895,-697.1638 904.0298,-684 751.0802,-660.0764 573.4319,-628.3494 470.9436,-609.6591"/>
<polygon fill="#000000" stroke="#000000" points="471.4248,-606.1892 460.9588,-607.8361 470.1675,-613.0754 471.4248,-606.1892"/>
</g>
<!-- [root] module.nic.var.nic_name -->
<g id="node12" class="node">
<title>[root] module.nic.var.nic_name</title>
<ellipse fill="none" stroke="#000000" cx="1367.0298" cy="-666" rx="121.7003" ry="18"/>
<text text-anchor="middle" x="1367.0298" y="-661.8" font-family="Times,serif" font-size="14.00" fill="#000000">[root] module.nic.var.nic_name</text>
</g>
<!-- [root] module.nic.azurerm_network_interface.main&#45;&gt;[root] module.nic.var.nic_name -->
<g id="edge5" class="edge">
<title>[root] module.nic.azurerm_network_interface.main&#45;&gt;[root] module.nic.var.nic_name</title>
<path fill="none" stroke="#000000" d="M1310.9555,-719.8314C1320.0846,-711.0673 1331.1787,-700.4171 1341.0816,-690.9103"/>
<polygon fill="#000000" stroke="#000000" points="1343.58,-693.3636 1348.37,-683.9134 1338.7322,-688.3139 1343.58,-693.3636"/>
</g>
<!-- [root] module.nic.var.pub_ip_id -->
<g id="node13" class="node">
<title>[root] module.nic.var.pub_ip_id</title>
<ellipse fill="none" stroke="#000000" cx="1167.0298" cy="-522" rx="123.1798" ry="18"/>
<text text-anchor="middle" x="1167.0298" y="-517.8" font-family="Times,serif" font-size="14.00" fill="#000000">[root] module.nic.var.pub_ip_id</text>
</g>
<!-- [root] module.nic.azurerm_network_interface.main&#45;&gt;[root] module.nic.var.pub_ip_id -->
<g id="edge6" class="edge">
<title>[root] module.nic.azurerm_network_interface.main&#45;&gt;[root] module.nic.var.pub_ip_id</title>
<path fill="none" stroke="#000000" d="M1269.1917,-719.7734C1258.102,-710.0473 1245.2227,-697.3478 1236.0298,-684 1206.4875,-641.1056 1185.7057,-583.5519 1175.1087,-549.8503"/>
<polygon fill="#000000" stroke="#000000" points="1178.4272,-548.7335 1172.1486,-540.1995 1171.7349,-550.7863 1178.4272,-548.7335"/>
</g>
<!-- [root] module.nic.var.resource_group_name -->
<g id="node14" class="node">
<title>[root] module.nic.var.resource_group_name</title>
<ellipse fill="none" stroke="#000000" cx="2440.0298" cy="-594" rx="165.6006" ry="18"/>
<text text-anchor="middle" x="2440.0298" y="-589.8" font-family="Times,serif" font-size="14.00" fill="#000000">[root] module.nic.var.resource_group_name</text>
</g>
<!-- [root] module.nic.azurerm_network_interface.main&#45;&gt;[root] module.nic.var.resource_group_name -->
<g id="edge7" class="edge">
<title>[root] module.nic.azurerm_network_interface.main&#45;&gt;[root] module.nic.var.resource_group_name</title>
<path fill="none" stroke="#000000" d="M1426.2874,-723.1601C1520.1084,-712.6384 1648.2719,-697.9633 1761.0298,-684 1960.6372,-659.2818 2192.8893,-627.9382 2327.5121,-609.5147"/>
<polygon fill="#000000" stroke="#000000" points="2328.0008,-612.9805 2337.4334,-608.1561 2327.051,-606.0452 2328.0008,-612.9805"/>
</g>
<!-- [root] module.nic.var.subnet_id -->
<g id="node15" class="node">
<title>[root] module.nic.var.subnet_id</title>
<ellipse fill="none" stroke="#000000" cx="1630.0298" cy="-666" rx="121.7263" ry="18"/>
<text text-anchor="middle" x="1630.0298" y="-661.8" font-family="Times,serif" font-size="14.00" fill="#000000">[root] module.nic.var.subnet_id</text>
</g>
<!-- [root] module.nic.azurerm_network_interface.main&#45;&gt;[root] module.nic.var.subnet_id -->
<g id="edge8" class="edge">
<title>[root] module.nic.azurerm_network_interface.main&#45;&gt;[root] module.nic.var.subnet_id</title>
<path fill="none" stroke="#000000" d="M1376.8852,-719.9243C1430.1614,-708.5755 1498.416,-694.0361 1550.6238,-682.9149"/>
<polygon fill="#000000" stroke="#000000" points="1551.4584,-686.3157 1560.5097,-680.809 1549.9999,-679.4693 1551.4584,-686.3157"/>
</g>
<!-- [root] module.public_ip.azurerm_public_ip.main -->
<g id="node2" class="node">
<title>[root] module.public_ip.azurerm_public_ip.main</title>
<polygon fill="none" stroke="#000000" points="969.6372,-324 714.4223,-324 714.4223,-288 969.6372,-288 969.6372,-324"/>
<text text-anchor="middle" x="842.0298" y="-301.8" font-family="Times,serif" font-size="14.00" fill="#000000">module.public_ip.azurerm_public_ip.main</text>
</g>
<!-- [root] module.public_ip.var.ip_name -->
<g id="node21" class="node">
<title>[root] module.public_ip.var.ip_name</title>
<ellipse fill="none" stroke="#000000" cx="206.0298" cy="-234" rx="140.0522" ry="18"/>
<text text-anchor="middle" x="206.0298" y="-229.8" font-family="Times,serif" font-size="14.00" fill="#000000">[root] module.public_ip.var.ip_name</text>
</g>
<!-- [root] module.public_ip.azurerm_public_ip.main&#45;&gt;[root] module.public_ip.var.ip_name -->
<g id="edge14" class="edge">
<title>[root] module.public_ip.azurerm_public_ip.main&#45;&gt;[root] module.public_ip.var.ip_name</title>
<path fill="none" stroke="#000000" d="M714.3431,-292.1219C616.3035,-281.3912 477.5748,-266.0449 356.0298,-252 343.7971,-250.5865 331.0062,-249.086 318.2732,-247.578"/>
<polygon fill="#000000" stroke="#000000" points="318.4287,-244.072 308.0858,-246.3686 317.6034,-251.0232 318.4287,-244.072"/>
</g>
<!-- [root] module.public_ip.var.location -->
<g id="node22" class="node">
<title>[root] module.public_ip.var.location</title>
<ellipse fill="none" stroke="#000000" cx="503.0298" cy="-234" rx="138.1226" ry="18"/>
<text text-anchor="middle" x="503.0298" y="-229.8" font-family="Times,serif" font-size="14.00" fill="#000000">[root] module.public_ip.var.location</text>
</g>
<!-- [root] module.public_ip.azurerm_public_ip.main&#45;&gt;[root] module.public_ip.var.location -->
<g id="edge15" class="edge">
<title>[root] module.public_ip.azurerm_public_ip.main&#45;&gt;[root] module.public_ip.var.location</title>
<path fill="none" stroke="#000000" d="M756.9233,-287.9243C704.4108,-276.7712 637.3891,-262.5365 585.3933,-251.4931"/>
<polygon fill="#000000" stroke="#000000" points="586.0442,-248.0534 575.5352,-249.3994 584.5899,-254.9007 586.0442,-248.0534"/>
</g>
<!-- [root] module.public_ip.var.public_ip_allocation -->
<g id="node23" class="node">
<title>[root] module.public_ip.var.public_ip_allocation</title>
<ellipse fill="none" stroke="#000000" cx="842.0298" cy="-234" rx="182.5397" ry="18"/>
<text text-anchor="middle" x="842.0298" y="-229.8" font-family="Times,serif" font-size="14.00" fill="#000000">[root] module.public_ip.var.public_ip_allocation</text>
</g>
<!-- [root] module.public_ip.azurerm_public_ip.main&#45;&gt;[root] module.public_ip.var.public_ip_allocation -->
<g id="edge16" class="edge">
<title>[root] module.public_ip.azurerm_public_ip.main&#45;&gt;[root] module.public_ip.var.public_ip_allocation</title>
<path fill="none" stroke="#000000" d="M842.0298,-287.8314C842.0298,-280.131 842.0298,-270.9743 842.0298,-262.4166"/>
<polygon fill="#000000" stroke="#000000" points="845.5299,-262.4132 842.0298,-252.4133 838.5299,-262.4133 845.5299,-262.4132"/>
</g>
<!-- [root] module.public_ip.var.resource_group_name -->
<g id="node24" class="node">
<title>[root] module.public_ip.var.resource_group_name</title>
<ellipse fill="none" stroke="#000000" cx="1231.0298" cy="-234" rx="188.3023" ry="18"/>
<text text-anchor="middle" x="1231.0298" y="-229.8" font-family="Times,serif" font-size="14.00" fill="#000000">[root] module.public_ip.var.resource_group_name</text>
</g>
<!-- [root] module.public_ip.azurerm_public_ip.main&#45;&gt;[root] module.public_ip.var.resource_group_name -->
<g id="edge17" class="edge">
<title>[root] module.public_ip.azurerm_public_ip.main&#45;&gt;[root] module.public_ip.var.resource_group_name</title>
<path fill="none" stroke="#000000" d="M939.438,-287.9707C999.0053,-276.9454 1074.9134,-262.8956 1134.3473,-251.895"/>
<polygon fill="#000000" stroke="#000000" points="1135.2945,-255.2792 1144.4905,-250.0176 1134.0205,-248.3961 1135.2945,-255.2792"/>
</g>
<!-- [root] module.resource_group.azurerm_resource_group.main -->
<g id="node3" class="node">
<title>[root] module.resource_group.azurerm_resource_group.main</title>
<polygon fill="none" stroke="#000000" points="1137.0243,-108 813.0353,-108 813.0353,-72 1137.0243,-72 1137.0243,-108"/>
<text text-anchor="middle" x="975.0298" y="-85.8" font-family="Times,serif" font-size="14.00" fill="#000000">module.resource_group.azurerm_resource_group.main</text>
</g>
<!-- [root] provider.azurerm -->
<g id="node7" class="node">
<title>[root] provider.azurerm</title>
<polygon fill="none" stroke="#000000" points="697.0298,-36 596.8935,-18 697.0298,0 797.166,-18 697.0298,-36"/>
<text text-anchor="middle" x="697.0298" y="-13.8" font-family="Times,serif" font-size="14.00" fill="#000000">provider.azurerm</text>
</g>
<!-- [root] module.resource_group.azurerm_resource_group.main&#45;&gt;[root] provider.azurerm -->
<g id="edge23" class="edge">
<title>[root] module.resource_group.azurerm_resource_group.main&#45;&gt;[root] provider.azurerm</title>
<path fill="none" stroke="#000000" d="M905.2375,-71.9243C856.4442,-59.2872 792.3757,-42.6939 748.2639,-31.2693"/>
<polygon fill="#000000" stroke="#000000" points="748.8937,-27.817 738.3355,-28.6979 747.1386,-34.5934 748.8937,-27.817"/>
</g>
<!-- [root] module.resource_group.var.location -->
<g id="node25" class="node">
<title>[root] module.resource_group.var.location</title>
<ellipse fill="none" stroke="#000000" cx="975.0298" cy="-18" rx="159.8207" ry="18"/>
<text text-anchor="middle" x="975.0298" y="-13.8" font-family="Times,serif" font-size="14.00" fill="#000000">[root] module.resource_group.var.location</text>
</g>
<!-- [root] module.resource_group.azurerm_resource_group.main&#45;&gt;[root] module.resource_group.var.location -->
<g id="edge21" class="edge">
<title>[root] module.resource_group.azurerm_resource_group.main&#45;&gt;[root] module.resource_group.var.location</title>
<path fill="none" stroke="#000000" d="M975.0298,-71.8314C975.0298,-64.131 975.0298,-54.9743 975.0298,-46.4166"/>
<polygon fill="#000000" stroke="#000000" points="978.5299,-46.4132 975.0298,-36.4133 971.5299,-46.4133 978.5299,-46.4132"/>
</g>
<!-- [root] module.resource_group.var.resource_group_name -->
<g id="node26" class="node">
<title>[root] module.resource_group.var.resource_group_name</title>
<ellipse fill="none" stroke="#000000" cx="1363.0298" cy="-18" rx="210.0005" ry="18"/>
<text text-anchor="middle" x="1363.0298" y="-13.8" font-family="Times,serif" font-size="14.00" fill="#000000">[root] module.resource_group.var.resource_group_name</text>
</g>
<!-- [root] module.resource_group.azurerm_resource_group.main&#45;&gt;[root] module.resource_group.var.resource_group_name -->
<g id="edge22" class="edge">
<title>[root] module.resource_group.azurerm_resource_group.main&#45;&gt;[root] module.resource_group.var.resource_group_name</title>
<path fill="none" stroke="#000000" d="M1072.1876,-71.9707C1130.9652,-61.0635 1205.6942,-47.1963 1264.6848,-36.2496"/>
<polygon fill="#000000" stroke="#000000" points="1265.5651,-39.6461 1274.7586,-34.3802 1264.2879,-32.7636 1265.5651,-39.6461"/>
</g>
<!-- [root] module.subnet.azurerm_subnet.main -->
<g id="node4" class="node">
<title>[root] module.subnet.azurerm_subnet.main</title>
<polygon fill="none" stroke="#000000" points="1746.4755,-540 1523.584,-540 1523.584,-504 1746.4755,-504 1746.4755,-540"/>
<text text-anchor="middle" x="1635.0298" y="-517.8" font-family="Times,serif" font-size="14.00" fill="#000000">module.subnet.azurerm_subnet.main</text>
</g>
<!-- [root] module.subnet.var.resource_group_name -->
<g id="node27" class="node">
<title>[root] module.subnet.var.resource_group_name</title>
<ellipse fill="none" stroke="#000000" cx="1435.0298" cy="-378" rx="178.1704" ry="18"/>
<text text-anchor="middle" x="1435.0298" y="-373.8" font-family="Times,serif" font-size="14.00" fill="#000000">[root] module.subnet.var.resource_group_name</text>
</g>
<!-- [root] module.subnet.azurerm_subnet.main&#45;&gt;[root] module.subnet.var.resource_group_name -->
<g id="edge26" class="edge">
<title>[root] module.subnet.azurerm_subnet.main&#45;&gt;[root] module.subnet.var.resource_group_name</title>
<path fill="none" stroke="#000000" d="M1537.9282,-503.9944C1499.1469,-494.8213 1460.6806,-482.5243 1448.0298,-468 1433.5068,-451.3261 1430.984,-425.9569 1431.6776,-406.3983"/>
<polygon fill="#000000" stroke="#000000" points="1435.183,-406.428 1432.3381,-396.2223 1428.1977,-405.9745 1435.183,-406.428"/>
</g>
<!-- [root] module.subnet.var.subnet_address_space -->
<g id="node28" class="node">
<title>[root] module.subnet.var.subnet_address_space</title>
<ellipse fill="none" stroke="#000000" cx="1635.0298" cy="-450" rx="177.7032" ry="18"/>
<text text-anchor="middle" x="1635.0298" y="-445.8" font-family="Times,serif" font-size="14.00" fill="#000000">[root] module.subnet.var.subnet_address_space</text>
</g>
<!-- [root] module.subnet.azurerm_subnet.main&#45;&gt;[root] module.subnet.var.subnet_address_space -->
<g id="edge27" class="edge">
<title>[root] module.subnet.azurerm_subnet.main&#45;&gt;[root] module.subnet.var.subnet_address_space</title>
<path fill="none" stroke="#000000" d="M1635.0298,-503.8314C1635.0298,-496.131 1635.0298,-486.9743 1635.0298,-478.4166"/>
<polygon fill="#000000" stroke="#000000" points="1638.5299,-478.4132 1635.0298,-468.4133 1631.5299,-478.4133 1638.5299,-478.4132"/>
</g>
<!-- [root] module.subnet.var.subnet_name -->
<g id="node29" class="node">
<title>[root] module.subnet.var.subnet_name</title>
<ellipse fill="none" stroke="#000000" cx="1977.0298" cy="-450" rx="146.3404" ry="18"/>
<text text-anchor="middle" x="1977.0298" y="-445.8" font-family="Times,serif" font-size="14.00" fill="#000000">[root] module.subnet.var.subnet_name</text>
</g>
<!-- [root] module.subnet.azurerm_subnet.main&#45;&gt;[root] module.subnet.var.subnet_name -->
<g id="edge28" class="edge">
<title>[root] module.subnet.azurerm_subnet.main&#45;&gt;[root] module.subnet.var.subnet_name</title>
<path fill="none" stroke="#000000" d="M1720.8894,-503.9243C1773.5878,-492.8299 1840.7701,-478.6862 1893.1079,-467.6678"/>
<polygon fill="#000000" stroke="#000000" points="1893.97,-471.0631 1903.0344,-465.578 1892.5278,-464.2132 1893.97,-471.0631"/>
</g>
<!-- [root] module.subnet.var.virtual_network_name -->
<g id="node30" class="node">
<title>[root] module.subnet.var.virtual_network_name</title>
<ellipse fill="none" stroke="#000000" cx="2321.0298" cy="-450" rx="179.6326" ry="18"/>
<text text-anchor="middle" x="2321.0298" y="-445.8" font-family="Times,serif" font-size="14.00" fill="#000000">[root] module.subnet.var.virtual_network_name</text>
</g>
<!-- [root] module.subnet.azurerm_subnet.main&#45;&gt;[root] module.subnet.var.virtual_network_name -->
<g id="edge29" class="edge">
<title>[root] module.subnet.azurerm_subnet.main&#45;&gt;[root] module.subnet.var.virtual_network_name</title>
<path fill="none" stroke="#000000" d="M1746.3919,-510.3118C1866.641,-497.691 2058.1909,-477.5866 2186.7024,-464.0985"/>
<polygon fill="#000000" stroke="#000000" points="2187.4218,-467.5423 2197.0018,-463.0175 2186.691,-460.5806 2187.4218,-467.5423"/>
</g>
<!-- [root] module.virtual_network.azurerm_virtual_network.main -->
<g id="node5" class="node">
<title>[root] module.virtual_network.azurerm_virtual_network.main</title>
<polygon fill="none" stroke="#000000" points="2485.2134,-324 2156.8461,-324 2156.8461,-288 2485.2134,-288 2485.2134,-324"/>
<text text-anchor="middle" x="2321.0298" y="-301.8" font-family="Times,serif" font-size="14.00" fill="#000000">module.virtual_network.azurerm_virtual_network.main</text>
</g>
<!-- [root] module.virtual_network.var.location -->
<g id="node32" class="node">
<title>[root] module.virtual_network.var.location</title>
<ellipse fill="none" stroke="#000000" cx="1636.0298" cy="-234" rx="161.2829" ry="18"/>
<text text-anchor="middle" x="1636.0298" y="-229.8" font-family="Times,serif" font-size="14.00" fill="#000000">[root] module.virtual_network.var.location</text>
</g>
<!-- [root] module.virtual_network.azurerm_virtual_network.main&#45;&gt;[root] module.virtual_network.var.location -->
<g id="edge33" class="edge">
<title>[root] module.virtual_network.azurerm_virtual_network.main&#45;&gt;[root] module.virtual_network.var.location</title>
<path fill="none" stroke="#000000" d="M2156.6753,-288.7417C2055.7821,-278.1452 1923.9279,-264.2931 1807.0298,-252 1793.0394,-250.5288 1778.4052,-248.9892 1763.8384,-247.4564"/>
<polygon fill="#000000" stroke="#000000" points="1764.0846,-243.9631 1753.7731,-246.3972 1763.3519,-250.9246 1764.0846,-243.9631"/>
</g>
<!-- [root] module.virtual_network.var.resource_group_name -->
<g id="node33" class="node">
<title>[root] module.virtual_network.var.resource_group_name</title>
<ellipse fill="none" stroke="#000000" cx="2027.0298" cy="-234" rx="211.4627" ry="18"/>
<text text-anchor="middle" x="2027.0298" y="-229.8" font-family="Times,serif" font-size="14.00" fill="#000000">[root] module.virtual_network.var.resource_group_name</text>
</g>
<!-- [root] module.virtual_network.azurerm_virtual_network.main&#45;&gt;[root] module.virtual_network.var.resource_group_name -->
<g id="edge34" class="edge">
<title>[root] module.virtual_network.azurerm_virtual_network.main&#45;&gt;[root] module.virtual_network.var.resource_group_name</title>
<path fill="none" stroke="#000000" d="M2247.2207,-287.9243C2204.287,-277.4099 2150.1703,-264.1569 2106.3312,-253.4208"/>
<polygon fill="#000000" stroke="#000000" points="2107.1157,-250.0095 2096.5702,-251.0303 2105.4506,-256.8086 2107.1157,-250.0095"/>
</g>
<!-- [root] module.virtual_network.var.vnet_address_space -->
<g id="node34" class="node">
<title>[root] module.virtual_network.var.vnet_address_space</title>
<ellipse fill="none" stroke="#000000" cx="2460.0298" cy="-234" rx="203.269" ry="18"/>
<text text-anchor="middle" x="2460.0298" y="-229.8" font-family="Times,serif" font-size="14.00" fill="#000000">[root] module.virtual_network.var.vnet_address_space</text>
</g>
<!-- [root] module.virtual_network.azurerm_virtual_network.main&#45;&gt;[root] module.virtual_network.var.vnet_address_space -->
<g id="edge35" class="edge">
<title>[root] module.virtual_network.azurerm_virtual_network.main&#45;&gt;[root] module.virtual_network.var.vnet_address_space</title>
<path fill="none" stroke="#000000" d="M2356.1054,-287.8314C2374.4347,-278.337 2397.0378,-266.6289 2416.4781,-256.5591"/>
<polygon fill="#000000" stroke="#000000" points="2418.1773,-259.6207 2425.447,-251.9134 2414.9576,-253.4051 2418.1773,-259.6207"/>
</g>
<!-- [root] module.virtual_network.var.vnet_name -->
<g id="node35" class="node">
<title>[root] module.virtual_network.var.vnet_name</title>
<ellipse fill="none" stroke="#000000" cx="2853.0298" cy="-234" rx="171.9063" ry="18"/>
<text text-anchor="middle" x="2853.0298" y="-229.8" font-family="Times,serif" font-size="14.00" fill="#000000">[root] module.virtual_network.var.vnet_name</text>
</g>
<!-- [root] module.virtual_network.azurerm_virtual_network.main&#45;&gt;[root] module.virtual_network.var.vnet_name -->
<g id="edge36" class="edge">
<title>[root] module.virtual_network.azurerm_virtual_network.main&#45;&gt;[root] module.virtual_network.var.vnet_name</title>
<path fill="none" stroke="#000000" d="M2454.2462,-287.9707C2541.4938,-276.1628 2654.3747,-260.8857 2737.759,-249.6006"/>
<polygon fill="#000000" stroke="#000000" points="2738.3376,-253.0542 2747.7779,-248.2446 2737.3988,-246.1175 2738.3376,-253.0542"/>
</g>
<!-- [root] module.vm.azurerm_virtual_machine.main -->
<g id="node6" class="node">
<title>[root] module.vm.azurerm_virtual_machine.main</title>
<polygon fill="none" stroke="#000000" points="1897.2271,-972 1638.8324,-972 1638.8324,-936 1897.2271,-936 1897.2271,-972"/>
<text text-anchor="middle" x="1768.0298" y="-949.8" font-family="Times,serif" font-size="14.00" fill="#000000">module.vm.azurerm_virtual_machine.main</text>
</g>
<!-- [root] module.vm.var.location -->
<g id="node36" class="node">
<title>[root] module.vm.var.location</title>
<ellipse fill="none" stroke="#000000" cx="176.0298" cy="-810" rx="116.414" ry="18"/>
<text text-anchor="middle" x="176.0298" y="-805.8" font-family="Times,serif" font-size="14.00" fill="#000000">[root] module.vm.var.location</text>
</g>
<!-- [root] module.vm.azurerm_virtual_machine.main&#45;&gt;[root] module.vm.var.location -->
<g id="edge40" class="edge">
<title>[root] module.vm.azurerm_virtual_machine.main&#45;&gt;[root] module.vm.var.location</title>
<path fill="none" stroke="#000000" d="M1638.7617,-942.3074C1333.6065,-914.7054 572.717,-845.8813 286.8878,-820.0274"/>
<polygon fill="#000000" stroke="#000000" points="286.7852,-816.5039 276.5105,-819.0887 286.1545,-823.4754 286.7852,-816.5039"/>
</g>
<!-- [root] module.vm.var.nic_id -->
<g id="node37" class="node">
<title>[root] module.vm.var.nic_id</title>
<ellipse fill="none" stroke="#000000" cx="1297.0298" cy="-882" rx="109.6496" ry="18"/>
<text text-anchor="middle" x="1297.0298" y="-877.8" font-family="Times,serif" font-size="14.00" fill="#000000">[root] module.vm.var.nic_id</text>
</g>
<!-- [root] module.vm.azurerm_virtual_machine.main&#45;&gt;[root] module.vm.var.nic_id -->
<g id="edge41" class="edge">
<title>[root] module.vm.azurerm_virtual_machine.main&#45;&gt;[root] module.vm.var.nic_id</title>
<path fill="none" stroke="#000000" d="M1650.0882,-935.9707C1568.8913,-923.5585 1462.6181,-907.3129 1387.9608,-895.9003"/>
<polygon fill="#000000" stroke="#000000" points="1388.0561,-892.3743 1377.642,-894.3229 1386.9983,-899.2939 1388.0561,-892.3743"/>
</g>
<!-- [root] module.vm.var.resource_group_name -->
<g id="node38" class="node">
<title>[root] module.vm.var.resource_group_name</title>
<ellipse fill="none" stroke="#000000" cx="2425.0298" cy="-738" rx="166.0938" ry="18"/>
<text text-anchor="middle" x="2425.0298" y="-733.8" font-family="Times,serif" font-size="14.00" fill="#000000">[root] module.vm.var.resource_group_name</text>
</g>
<!-- [root] module.vm.azurerm_virtual_machine.main&#45;&gt;[root] module.vm.var.resource_group_name -->
<g id="edge42" class="edge">
<title>[root] module.vm.azurerm_virtual_machine.main&#45;&gt;[root] module.vm.var.resource_group_name</title>
<path fill="none" stroke="#000000" d="M1638.7135,-947.6889C1565.166,-941.0887 1483.2051,-927.592 1460.0298,-900 1449.7392,-887.7483 1449.4739,-876.0238 1460.0298,-864 1512.4512,-804.289 2008.8833,-764.2972 2268.4925,-747.2856"/>
<polygon fill="#000000" stroke="#000000" points="2269.0177,-750.7589 2278.769,-746.6161 2268.5626,-743.7737 2269.0177,-750.7589"/>
</g>
<!-- [root] module.vm.var.vm_admin_pwd -->
<g id="node39" class="node">
<title>[root] module.vm.var.vm_admin_pwd</title>
<ellipse fill="none" stroke="#000000" cx="1614.0298" cy="-882" rx="145.3974" ry="18"/>
<text text-anchor="middle" x="1614.0298" y="-877.8" font-family="Times,serif" font-size="14.00" fill="#000000">[root] module.vm.var.vm_admin_pwd</text>
</g>
<!-- [root] module.vm.azurerm_virtual_machine.main&#45;&gt;[root] module.vm.var.vm_admin_pwd -->
<g id="edge43" class="edge">
<title>[root] module.vm.azurerm_virtual_machine.main&#45;&gt;[root] module.vm.var.vm_admin_pwd</title>
<path fill="none" stroke="#000000" d="M1729.1691,-935.8314C1708.2742,-926.0623 1682.3665,-913.9496 1660.4209,-903.6893"/>
<polygon fill="#000000" stroke="#000000" points="1661.8255,-900.4825 1651.2843,-899.4177 1658.8608,-906.8237 1661.8255,-900.4825"/>
</g>
<!-- [root] module.vm.var.vm_admin_user -->
<g id="node40" class="node">
<title>[root] module.vm.var.vm_admin_user</title>
<ellipse fill="none" stroke="#000000" cx="1922.0298" cy="-882" rx="144.9042" ry="18"/>
<text text-anchor="middle" x="1922.0298" y="-877.8" font-family="Times,serif" font-size="14.00" fill="#000000">[root] module.vm.var.vm_admin_user</text>
</g>
<!-- [root] module.vm.azurerm_virtual_machine.main&#45;&gt;[root] module.vm.var.vm_admin_user -->
<g id="edge44" class="edge">
<title>[root] module.vm.azurerm_virtual_machine.main&#45;&gt;[root] module.vm.var.vm_admin_user</title>
<path fill="none" stroke="#000000" d="M1806.8905,-935.8314C1827.7854,-926.0623 1853.6931,-913.9496 1875.6387,-903.6893"/>
<polygon fill="#000000" stroke="#000000" points="1877.1988,-906.8237 1884.7752,-899.4177 1874.234,-900.4825 1877.1988,-906.8237"/>
</g>
<!-- [root] module.vm.var.vm_hostname -->
<g id="node41" class="node">
<title>[root] module.vm.var.vm_hostname</title>
<ellipse fill="none" stroke="#000000" cx="2222.0298" cy="-882" rx="137.1708" ry="18"/>
<text text-anchor="middle" x="2222.0298" y="-877.8" font-family="Times,serif" font-size="14.00" fill="#000000">[root] module.vm.var.vm_hostname</text>
</g>
<!-- [root] module.vm.azurerm_virtual_machine.main&#45;&gt;[root] module.vm.var.vm_hostname -->
<g id="edge45" class="edge">
<title>[root] module.vm.azurerm_virtual_machine.main&#45;&gt;[root] module.vm.var.vm_hostname</title>
<path fill="none" stroke="#000000" d="M1881.7145,-935.9707C1956.4687,-924.1154 2053.2737,-908.7631 2124.5144,-897.465"/>
<polygon fill="#000000" stroke="#000000" points="2125.0638,-900.9217 2134.3921,-895.8985 2123.9673,-894.0081 2125.0638,-900.9217"/>
</g>
<!-- [root] module.vm.var.vm_name -->
<g id="node42" class="node">
<title>[root] module.vm.var.vm_name</title>
<ellipse fill="none" stroke="#000000" cx="2500.0298" cy="-882" rx="122.6867" ry="18"/>
<text text-anchor="middle" x="2500.0298" y="-877.8" font-family="Times,serif" font-size="14.00" fill="#000000">[root] module.vm.var.vm_name</text>
</g>
<!-- [root] module.vm.azurerm_virtual_machine.main&#45;&gt;[root] module.vm.var.vm_name -->
<g id="edge46" class="edge">
<title>[root] module.vm.azurerm_virtual_machine.main&#45;&gt;[root] module.vm.var.vm_name</title>
<path fill="none" stroke="#000000" d="M1897.2809,-941.4056C1916.6342,-939.5642 1936.3543,-937.7127 1955.0298,-936 2138.5114,-919.1729 2184.917,-920.4534 2368.0298,-900 2379.0522,-898.7688 2390.5768,-897.3673 2402.0287,-895.9025"/>
<polygon fill="#000000" stroke="#000000" points="2402.5926,-899.3587 2412.0594,-894.6016 2401.6922,-892.4169 2402.5926,-899.3587"/>
</g>
<!-- [root] module.vm.var.vm_size -->
<g id="node43" class="node">
<title>[root] module.vm.var.vm_size</title>
<ellipse fill="none" stroke="#000000" cx="2758.0298" cy="-882" rx="117.383" ry="18"/>
<text text-anchor="middle" x="2758.0298" y="-877.8" font-family="Times,serif" font-size="14.00" fill="#000000">[root] module.vm.var.vm_size</text>
</g>
<!-- [root] module.vm.azurerm_virtual_machine.main&#45;&gt;[root] module.vm.var.vm_size -->
<g id="edge47" class="edge">
<title>[root] module.vm.azurerm_virtual_machine.main&#45;&gt;[root] module.vm.var.vm_size</title>
<path fill="none" stroke="#000000" d="M1897.2335,-940.8355C1916.5935,-939.074 1936.3281,-937.3967 1955.0298,-936 2255.507,-913.5598 2332.1472,-929.335 2632.0298,-900 2642.8059,-898.9459 2654.073,-897.6358 2665.2483,-896.2064"/>
<polygon fill="#000000" stroke="#000000" points="2666.0097,-899.6366 2675.4688,-894.8641 2665.0981,-892.6962 2666.0097,-899.6366"/>
</g>
<!-- [root] meta.count&#45;boundary (count boundary fixup) -->
<g id="node8" class="node">
<title>[root] meta.count&#45;boundary (count boundary fixup)</title>
<ellipse fill="none" stroke="#000000" cx="2048.0298" cy="-1026" rx="191.6931" ry="18"/>
<text text-anchor="middle" x="2048.0298" y="-1021.8" font-family="Times,serif" font-size="14.00" fill="#000000">[root] meta.count&#45;boundary (count boundary fixup)</text>
</g>
<!-- [root] meta.count&#45;boundary (count boundary fixup)&#45;&gt;[root] module.vm.azurerm_virtual_machine.main -->
<g id="edge1" class="edge">
<title>[root] meta.count&#45;boundary (count boundary fixup)&#45;&gt;[root] module.vm.azurerm_virtual_machine.main</title>
<path fill="none" stroke="#000000" d="M1982.0283,-1009.0282C1941.9793,-998.7299 1890.5928,-985.5162 1848.2129,-974.6185"/>
<polygon fill="#000000" stroke="#000000" points="1849.0396,-971.2173 1838.483,-972.1165 1847.2962,-977.9967 1849.0396,-971.2173"/>
</g>
<!-- [root] var.vnet_name -->
<g id="node9" class="node">
<title>[root] var.vnet_name</title>
<ellipse fill="none" stroke="#000000" cx="2048.0298" cy="-954" rx="84.041" ry="18"/>
<text text-anchor="middle" x="2048.0298" y="-949.8" font-family="Times,serif" font-size="14.00" fill="#000000">[root] var.vnet_name</text>
</g>
<!-- [root] meta.count&#45;boundary (count boundary fixup)&#45;&gt;[root] var.vnet_name -->
<g id="edge2" class="edge">
<title>[root] meta.count&#45;boundary (count boundary fixup)&#45;&gt;[root] var.vnet_name</title>
<path fill="none" stroke="#000000" d="M2048.0298,-1007.8314C2048.0298,-1000.131 2048.0298,-990.9743 2048.0298,-982.4166"/>
<polygon fill="#000000" stroke="#000000" points="2051.5299,-982.4132 2048.0298,-972.4133 2044.5299,-982.4133 2051.5299,-982.4132"/>
</g>
<!-- [root] module.resource_group.output.rg_location -->
<g id="node17" class="node">
<title>[root] module.resource_group.output.rg_location</title>
<ellipse fill="none" stroke="#000000" cx="503.0298" cy="-162" rx="183.1721" ry="18"/>
<text text-anchor="middle" x="503.0298" y="-157.8" font-family="Times,serif" font-size="14.00" fill="#000000">[root] module.resource_group.output.rg_location</text>
</g>
<!-- [root] module.nic.var.location&#45;&gt;[root] module.resource_group.output.rg_location -->
<g id="edge10" class="edge">
<title>[root] module.nic.var.location&#45;&gt;[root] module.resource_group.output.rg_location</title>
<path fill="none" stroke="#000000" d="M315.1873,-579.6812C213.4373,-557.0498 38.0298,-509.4184 38.0298,-450 38.0298,-450 38.0298,-450 38.0298,-306 38.0298,-265.1184 26.8845,-243.6147 57.0298,-216 78.0561,-196.7388 220.5975,-181.862 338.9638,-172.6459"/>
<polygon fill="#000000" stroke="#000000" points="339.5462,-176.1115 349.2482,-171.8545 339.0091,-169.1321 339.5462,-176.1115"/>
</g>
<!-- [root] module.public_ip.output.pub_ip_id -->
<g id="node18" class="node">
<title>[root] module.public_ip.output.pub_ip_id</title>
<ellipse fill="none" stroke="#000000" cx="867.0298" cy="-378" rx="157.4671" ry="18"/>
<text text-anchor="middle" x="867.0298" y="-373.8" font-family="Times,serif" font-size="14.00" fill="#000000">[root] module.public_ip.output.pub_ip_id</text>
</g>
<!-- [root] module.nic.var.pub_ip_id&#45;&gt;[root] module.public_ip.output.pub_ip_id -->
<g id="edge11" class="edge">
<title>[root] module.nic.var.pub_ip_id&#45;&gt;[root] module.public_ip.output.pub_ip_id</title>
<path fill="none" stroke="#000000" d="M1131.1408,-504.7733C1076.6657,-478.6253 973.1202,-428.9234 913.1371,-400.1315"/>
<polygon fill="#000000" stroke="#000000" points="914.4283,-396.869 903.8984,-395.697 911.3991,-403.1797 914.4283,-396.869"/>
</g>
<!-- [root] module.resource_group.output.rg_name -->
<g id="node19" class="node">
<title>[root] module.resource_group.output.rg_name</title>
<ellipse fill="none" stroke="#000000" cx="1737.0298" cy="-162" rx="174.0005" ry="18"/>
<text text-anchor="middle" x="1737.0298" y="-157.8" font-family="Times,serif" font-size="14.00" fill="#000000">[root] module.resource_group.output.rg_name</text>
</g>
<!-- [root] module.nic.var.resource_group_name&#45;&gt;[root] module.resource_group.output.rg_name -->
<g id="edge12" class="edge">
<title>[root] module.nic.var.resource_group_name&#45;&gt;[root] module.resource_group.output.rg_name</title>
<path fill="none" stroke="#000000" d="M2596.3017,-587.9303C2777.9183,-576.5111 3053.0298,-543.7424 3053.0298,-450 3053.0298,-450 3053.0298,-450 3053.0298,-306 3053.0298,-265.1184 3065.2404,-242.4046 3034.0298,-216 2992.2879,-180.6858 2268.3382,-167.8798 1920.6026,-163.7511"/>
<polygon fill="#000000" stroke="#000000" points="1920.4659,-160.2494 1910.4254,-163.6315 1920.3835,-167.2489 1920.4659,-160.2494"/>
</g>
<!-- [root] module.subnet.output.subnet_id -->
<g id="node20" class="node">
<title>[root] module.subnet.output.subnet_id</title>
<ellipse fill="none" stroke="#000000" cx="1632.0298" cy="-594" rx="145.8819" ry="18"/>
<text text-anchor="middle" x="1632.0298" y="-589.8" font-family="Times,serif" font-size="14.00" fill="#000000">[root] module.subnet.output.subnet_id</text>
</g>
<!-- [root] module.nic.var.subnet_id&#45;&gt;[root] module.subnet.output.subnet_id -->
<g id="edge13" class="edge">
<title>[root] module.nic.var.subnet_id&#45;&gt;[root] module.subnet.output.subnet_id</title>
<path fill="none" stroke="#000000" d="M1630.5345,-647.8314C1630.7484,-640.131 1631.0027,-630.9743 1631.2404,-622.4166"/>
<polygon fill="#000000" stroke="#000000" points="1634.7392,-622.5066 1631.5183,-612.4133 1627.7419,-622.3122 1634.7392,-622.5066"/>
</g>
<!-- [root] module.nic.output.nic_id -->
<g id="node16" class="node">
<title>[root] module.nic.output.nic_id</title>
<ellipse fill="none" stroke="#000000" cx="1292.0298" cy="-810" rx="121.2418" ry="18"/>
<text text-anchor="middle" x="1292.0298" y="-805.8" font-family="Times,serif" font-size="14.00" fill="#000000">[root] module.nic.output.nic_id</text>
</g>
<!-- [root] module.nic.output.nic_id&#45;&gt;[root] module.nic.azurerm_network_interface.main -->
<g id="edge9" class="edge">
<title>[root] module.nic.output.nic_id&#45;&gt;[root] module.nic.azurerm_network_interface.main</title>
<path fill="none" stroke="#000000" d="M1292.0298,-791.8314C1292.0298,-784.131 1292.0298,-774.9743 1292.0298,-766.4166"/>
<polygon fill="#000000" stroke="#000000" points="1295.5299,-766.4132 1292.0298,-756.4133 1288.5299,-766.4133 1295.5299,-766.4132"/>
</g>
<!-- [root] module.resource_group.output.rg_location&#45;&gt;[root] module.resource_group.azurerm_resource_group.main -->
<g id="edge24" class="edge">
<title>[root] module.resource_group.output.rg_location&#45;&gt;[root] module.resource_group.azurerm_resource_group.main</title>
<path fill="none" stroke="#000000" d="M602.2641,-146.8626C673.2985,-136.0268 769.575,-121.3406 846.4894,-109.6079"/>
<polygon fill="#000000" stroke="#000000" points="847.3703,-113.0141 856.7282,-108.046 846.3147,-106.0941 847.3703,-113.0141"/>
</g>
<!-- [root] module.public_ip.output.pub_ip_id&#45;&gt;[root] module.public_ip.azurerm_public_ip.main -->
<g id="edge18" class="edge">
<title>[root] module.public_ip.output.pub_ip_id&#45;&gt;[root] module.public_ip.azurerm_public_ip.main</title>
<path fill="none" stroke="#000000" d="M860.7212,-359.8314C858.0181,-352.0463 854.7982,-342.7729 851.7988,-334.1347"/>
<polygon fill="#000000" stroke="#000000" points="855.0098,-332.7119 848.4233,-324.4133 848.3971,-335.0081 855.0098,-332.7119"/>
</g>
<!-- [root] module.resource_group.output.rg_name&#45;&gt;[root] module.resource_group.azurerm_resource_group.main -->
<g id="edge25" class="edge">
<title>[root] module.resource_group.output.rg_name&#45;&gt;[root] module.resource_group.azurerm_resource_group.main</title>
<path fill="none" stroke="#000000" d="M1608.198,-149.8269C1481.3807,-137.8442 1286.9109,-119.4691 1146.9588,-106.2453"/>
<polygon fill="#000000" stroke="#000000" points="1147.2631,-102.7585 1136.9782,-105.3022 1146.6046,-109.7275 1147.2631,-102.7585"/>
</g>
<!-- [root] module.subnet.output.subnet_id&#45;&gt;[root] module.subnet.azurerm_subnet.main -->
<g id="edge30" class="edge">
<title>[root] module.subnet.output.subnet_id&#45;&gt;[root] module.subnet.azurerm_subnet.main</title>
<path fill="none" stroke="#000000" d="M1632.7868,-575.8314C1633.1077,-568.131 1633.4892,-558.9743 1633.8458,-550.4166"/>
<polygon fill="#000000" stroke="#000000" points="1637.3431,-550.5503 1634.2626,-540.4133 1630.3492,-550.2589 1637.3431,-550.5503"/>
</g>
<!-- [root] module.public_ip.var.location&#45;&gt;[root] module.resource_group.output.rg_location -->
<g id="edge19" class="edge">
<title>[root] module.public_ip.var.location&#45;&gt;[root] module.resource_group.output.rg_location</title>
<path fill="none" stroke="#000000" d="M503.0298,-215.8314C503.0298,-208.131 503.0298,-198.9743 503.0298,-190.4166"/>
<polygon fill="#000000" stroke="#000000" points="506.5299,-190.4132 503.0298,-180.4133 499.5299,-190.4133 506.5299,-190.4132"/>
</g>
<!-- [root] module.public_ip.var.resource_group_name&#45;&gt;[root] module.resource_group.output.rg_name -->
<g id="edge20" class="edge">
<title>[root] module.public_ip.var.resource_group_name&#45;&gt;[root] module.resource_group.output.rg_name</title>
<path fill="none" stroke="#000000" d="M1336.1805,-219.0378C1420.4352,-207.049 1538.3915,-190.2647 1624.5299,-178.0079"/>
<polygon fill="#000000" stroke="#000000" points="1625.2007,-181.4478 1634.6079,-176.5739 1624.2145,-174.5176 1625.2007,-181.4478"/>
</g>
<!-- [root] module.subnet.var.resource_group_name&#45;&gt;[root] module.resource_group.output.rg_name -->
<g id="edge31" class="edge">
<title>[root] module.subnet.var.resource_group_name&#45;&gt;[root] module.resource_group.output.rg_name</title>
<path fill="none" stroke="#000000" d="M1432.5856,-359.7431C1429.2184,-326.2644 1427.4023,-254.9227 1466.0298,-216 1485.3166,-196.5658 1541.2824,-183.7265 1597.3835,-175.4648"/>
<polygon fill="#000000" stroke="#000000" points="1598.076,-178.9015 1607.4822,-174.0257 1597.0884,-171.9716 1598.076,-178.9015"/>
</g>
<!-- [root] module.virtual_network.output.vnet_name -->
<g id="node31" class="node">
<title>[root] module.virtual_network.output.vnet_name</title>
<ellipse fill="none" stroke="#000000" cx="2321.0298" cy="-378" rx="183.4915" ry="18"/>
<text text-anchor="middle" x="2321.0298" y="-373.8" font-family="Times,serif" font-size="14.00" fill="#000000">[root] module.virtual_network.output.vnet_name</text>
</g>
<!-- [root] module.subnet.var.virtual_network_name&#45;&gt;[root] module.virtual_network.output.vnet_name -->
<g id="edge32" class="edge">
<title>[root] module.subnet.var.virtual_network_name&#45;&gt;[root] module.virtual_network.output.vnet_name</title>
<path fill="none" stroke="#000000" d="M2321.0298,-431.8314C2321.0298,-424.131 2321.0298,-414.9743 2321.0298,-406.4166"/>
<polygon fill="#000000" stroke="#000000" points="2324.5299,-406.4132 2321.0298,-396.4133 2317.5299,-406.4133 2324.5299,-406.4132"/>
</g>
<!-- [root] module.virtual_network.output.vnet_name&#45;&gt;[root] module.virtual_network.azurerm_virtual_network.main -->
<g id="edge37" class="edge">
<title>[root] module.virtual_network.output.vnet_name&#45;&gt;[root] module.virtual_network.azurerm_virtual_network.main</title>
<path fill="none" stroke="#000000" d="M2321.0298,-359.8314C2321.0298,-352.131 2321.0298,-342.9743 2321.0298,-334.4166"/>
<polygon fill="#000000" stroke="#000000" points="2324.5299,-334.4132 2321.0298,-324.4133 2317.5299,-334.4133 2324.5299,-334.4132"/>
</g>
<!-- [root] module.virtual_network.var.location&#45;&gt;[root] module.resource_group.output.rg_location -->
<g id="edge38" class="edge">
<title>[root] module.virtual_network.var.location&#45;&gt;[root] module.resource_group.output.rg_location</title>
<path fill="none" stroke="#000000" d="M1510.9616,-222.6047C1483.6414,-220.2753 1454.8722,-217.9446 1428.0298,-216 1166.5058,-197.0541 863.0088,-180.3423 677.015,-170.7006"/>
<polygon fill="#000000" stroke="#000000" points="677.0367,-167.1971 666.8692,-170.1756 676.6749,-174.1878 677.0367,-167.1971"/>
</g>
<!-- [root] module.virtual_network.var.resource_group_name&#45;&gt;[root] module.resource_group.output.rg_name -->
<g id="edge39" class="edge">
<title>[root] module.virtual_network.var.resource_group_name&#45;&gt;[root] module.resource_group.output.rg_name</title>
<path fill="none" stroke="#000000" d="M1958.3038,-216.937C1915.0145,-206.1893 1859.0455,-192.2936 1814.2288,-181.1667"/>
<polygon fill="#000000" stroke="#000000" points="1814.8108,-177.7049 1804.262,-178.6921 1813.124,-184.4987 1814.8108,-177.7049"/>
</g>
<!-- [root] module.vm.var.location&#45;&gt;[root] module.resource_group.output.rg_location -->
<g id="edge48" class="edge">
<title>[root] module.vm.var.location&#45;&gt;[root] module.resource_group.output.rg_location</title>
<path fill="none" stroke="#000000" d="M126.5356,-793.608C74.4792,-772.8753 .0298,-731.7336 .0298,-666 .0298,-666 .0298,-666 .0298,-306 .0298,-263.3959 -.4468,-242.352 33.0298,-216 57.1038,-197.0495 212.7797,-181.8451 338.4712,-172.4577"/>
<polygon fill="#000000" stroke="#000000" points="338.899,-175.9357 348.6137,-171.7078 338.3828,-168.9547 338.899,-175.9357"/>
</g>
<!-- [root] module.vm.var.nic_id&#45;&gt;[root] module.nic.output.nic_id -->
<g id="edge49" class="edge">
<title>[root] module.vm.var.nic_id&#45;&gt;[root] module.nic.output.nic_id</title>
<path fill="none" stroke="#000000" d="M1295.7681,-863.8314C1295.2333,-856.131 1294.5975,-846.9743 1294.0032,-838.4166"/>
<polygon fill="#000000" stroke="#000000" points="1297.4929,-838.1467 1293.3085,-828.4133 1290.5098,-838.6317 1297.4929,-838.1467"/>
</g>
<!-- [root] module.vm.var.resource_group_name&#45;&gt;[root] module.resource_group.output.rg_name -->
<g id="edge50" class="edge">
<title>[root] module.vm.var.resource_group_name&#45;&gt;[root] module.resource_group.output.rg_name</title>
<path fill="none" stroke="#000000" d="M2539.5193,-724.8727C2729.9385,-701.4718 3091.0298,-649.7474 3091.0298,-594 3091.0298,-594 3091.0298,-594 3091.0298,-306 3091.0298,-263.3959 3092.4525,-241.1036 3058.0298,-216 3012.897,-183.0859 2272.3753,-169.0025 1920.271,-164.1447"/>
<polygon fill="#000000" stroke="#000000" points="1920.2723,-160.6444 1910.2253,-164.0071 1920.1764,-167.6438 1920.2723,-160.6444"/>
</g>
<!-- [root] provider.azurerm (close) -->
<g id="node44" class="node">
<title>[root] provider.azurerm (close)</title>
<ellipse fill="none" stroke="#000000" cx="1719.0298" cy="-1026" rx="119.2527" ry="18"/>
<text text-anchor="middle" x="1719.0298" y="-1021.8" font-family="Times,serif" font-size="14.00" fill="#000000">[root] provider.azurerm (close)</text>
</g>
<!-- [root] provider.azurerm (close)&#45;&gt;[root] module.vm.azurerm_virtual_machine.main -->
<g id="edge51" class="edge">
<title>[root] provider.azurerm (close)&#45;&gt;[root] module.vm.azurerm_virtual_machine.main</title>
<path fill="none" stroke="#000000" d="M1731.3946,-1007.8314C1736.9806,-999.6232 1743.6927,-989.7606 1749.837,-980.7323"/>
<polygon fill="#000000" stroke="#000000" points="1752.7658,-982.6496 1755.4985,-972.4133 1746.9788,-978.7112 1752.7658,-982.6496"/>
</g>
<!-- [root] root -->
<g id="node45" class="node">
<title>[root] root</title>
<ellipse fill="none" stroke="#000000" cx="1883.0298" cy="-1098" rx="46.8976" ry="18"/>
<text text-anchor="middle" x="1883.0298" y="-1093.8" font-family="Times,serif" font-size="14.00" fill="#000000">[root] root</text>
</g>
<!-- [root] root&#45;&gt;[root] meta.count&#45;boundary (count boundary fixup) -->
<g id="edge52" class="edge">
<title>[root] root&#45;&gt;[root] meta.count&#45;boundary (count boundary fixup)</title>
<path fill="none" stroke="#000000" d="M1914.065,-1084.4574C1937.6974,-1074.145 1970.7106,-1059.7393 1998.0506,-1047.8091"/>
<polygon fill="#000000" stroke="#000000" points="1999.6943,-1050.9106 2007.4599,-1043.7032 1996.8947,-1044.4948 1999.6943,-1050.9106"/>
</g>
<!-- [root] root&#45;&gt;[root] provider.azurerm (close) -->
<g id="edge53" class="edge">
<title>[root] root&#45;&gt;[root] provider.azurerm (close)</title>
<path fill="none" stroke="#000000" d="M1852.1826,-1084.4574C1828.2785,-1073.9628 1794.718,-1059.229 1767.2711,-1047.1791"/>
<polygon fill="#000000" stroke="#000000" points="1768.407,-1043.8554 1757.8435,-1043.0402 1765.593,-1050.2649 1768.407,-1043.8554"/>
</g>
</g>
</svg>
